<?xml version="1.0" encoding="utf-8"?>
<!-- Generator: Adobe Illustrator 16.0.0, SVG Export Plug-In . SVG Version: 6.00 Build 0)  -->
<!DOCTYPE svg PUBLIC "-//W3C//DTD SVG 1.1//EN" "http://www.w3.org/Graphics/SVG/1.1/DTD/svg11.dtd">
<svg version="1.1" id="Слой_1" xmlns="http://www.w3.org/2000/svg" xmlns:xlink="http://www.w3.org/1999/xlink" x="0px" y="0px"
	 width="388.35px" height="92.786px" viewBox="0 0 388.35 92.786" enable-background="new 0 0 388.35 92.786" xml:space="preserve">
<g>
	<defs>
		<rect id="SVGID_1_" y="0" width="388.35" height="92.786"/>
	</defs>
	<clipPath id="SVGID_2_">
		<use xlink:href="#SVGID_1_"  overflow="visible"/>
	</clipPath>
	<path clip-path="url(#SVGID_2_)" fill-rule="evenodd" clip-rule="evenodd" fill="#FFFFFF" d="M60.351,91.081
		c-2.619-2.617-6.903-2.617-9.522,0c-2.619,2.618-7.352,2.17-10.517-0.994L2.374,52.15c-3.165-3.165-3.165-8.346,0-11.512
		L40.312,2.7c3.166-3.165,7.898-3.613,10.517-0.995c2.619,2.618,6.903,2.618,9.522,0c2.618-2.618,7.351-2.17,10.517,0.995
		l37.937,37.938c3.166,3.165,3.166,8.346,0,11.512L70.868,90.086C67.702,93.25,62.969,93.699,60.351,91.081 M49.834,58.174
		c3.166,3.166,8.347,3.166,11.512,0l6.024-6.024c3.166-3.166,3.166-8.347,0-11.512l-6.024-6.025c-3.165-3.165-8.346-3.165-11.512,0
		l-6.025,6.025c-3.165,3.166-3.165,8.347,0,11.512L49.834,58.174z"/>
	<path clip-path="url(#SVGID_2_)" fill-rule="evenodd" clip-rule="evenodd" fill="#E63312" d="M61.188,69.528
		c2.158,2.158,6.514,1.333,9.679-1.833L86.414,52.15c3.166-3.166,3.163-8.344-0.005-11.508L59.412,13.691
		c-3.168-3.163-5.751-5.756-5.74-5.763c0.012-0.005-1.694-1.726-3.792-3.823c-2.096-2.097-6.402-1.222-9.568,1.944L5.725,40.638
		c-3.166,3.165-3.166,8.346,0,11.512l34.587,34.588c3.166,3.166,7.522,3.991,9.68,1.833c2.157-2.158,1.333-6.514-1.832-9.68
		L21.418,52.15c-3.165-3.165-3.165-8.346,0-11.512l18.894-18.895c3.165-3.166,8.346-3.166,11.512,0l18.895,18.895
		c3.166,3.165,3.166,8.346,0,11.512l-7.698,7.698C59.855,63.014,59.03,67.37,61.188,69.528"/>
</g>
<g>
	<defs>
		<path id="SVGID_3_" d="M61.187,4.216c-2.157,2.158-1.693,6.153,1.032,8.879c2.723,2.725,7.544,7.545,10.709,10.711l16.834,16.832
			c3.166,3.166,3.166,8.346,0,11.512L70.867,71.045c-3.166,3.165-8.334,3.188-11.484,0.05c-3.151-3.138-5.721-5.709-5.712-5.714
			c0.008-0.004-2.575-2.597-5.741-5.764l-7.469-7.468c-3.165-3.166-3.165-8.346,0-11.512l7.7-7.698
			c3.165-3.167,3.989-7.522,1.831-9.68c-2.158-2.158-6.515-1.333-9.68,1.833L24.767,40.638c-3.166,3.166-3.166,8.346,0,11.512
			l34.588,34.589c3.166,3.166,8.347,3.166,11.512,0l34.589-34.589c3.165-3.166,3.165-8.346,0-11.512L70.868,6.048
			c-1.973-1.971-4.407-3.035-6.484-3.035C63.127,3.013,62.001,3.403,61.187,4.216"/>
	</defs>
	<clipPath id="SVGID_4_">
		<use xlink:href="#SVGID_3_"  overflow="visible"/>
	</clipPath>
	
		<linearGradient id="SVGID_5_" gradientUnits="userSpaceOnUse" x1="0" y1="92.7915" x2="1" y2="92.7915" gradientTransform="matrix(-85.4371 0 0 85.4371 107.8125 -7881.3032)">
		<stop  offset="0" style="stop-color:#BDBCBC"/>
		<stop  offset="0.7579" style="stop-color:#4D4D4C"/>
		<stop  offset="1" style="stop-color:#4D4D4C"/>
	</linearGradient>
	<rect x="21.601" y="3.013" clip-path="url(#SVGID_4_)" fill="url(#SVGID_5_)" width="87.02" height="86.892"/>
</g>
<g>
	<defs>
		<rect id="SVGID_6_" y="0" width="388.35" height="92.786"/>
	</defs>
	<clipPath id="SVGID_7_">
		<use xlink:href="#SVGID_6_"  overflow="visible"/>
	</clipPath>
	<path clip-path="url(#SVGID_7_)" fill="#B7B6B6" d="M110.134,80.673c-0.189,0-0.363-0.009-0.522-0.024
		c-0.16-0.017-0.306-0.046-0.44-0.09c-0.134-0.044-0.259-0.104-0.374-0.18c-0.115-0.076-0.221-0.178-0.318-0.302
		c-0.074-0.088-0.138-0.186-0.194-0.294c-0.055-0.108-0.102-0.232-0.138-0.374c-0.037-0.141-0.065-0.301-0.083-0.48
		c-0.019-0.181-0.028-0.386-0.028-0.616c0-0.406,0.026-0.761,0.079-1.066c0.054-0.304,0.168-0.566,0.343-0.788
		c0.111-0.143,0.236-0.257,0.374-0.34s0.282-0.146,0.432-0.189s0.301-0.071,0.453-0.083c0.153-0.012,0.298-0.018,0.437-0.018h2.048
		v1.204h-1.294c-0.129,0-0.249,0.001-0.36,0.003c-0.111,0.003-0.212,0.017-0.305,0.042c-0.092,0.025-0.175,0.063-0.249,0.114
		c-0.073,0.051-0.138,0.125-0.194,0.221c-0.036,0.061-0.065,0.129-0.086,0.205c-0.02,0.076-0.036,0.154-0.045,0.235
		c-0.009,0.081-0.016,0.158-0.02,0.231c-0.005,0.074-0.008,0.142-0.008,0.2c0,0.134,0.005,0.247,0.014,0.34
		c0.01,0.093,0.02,0.169,0.031,0.232c0.012,0.062,0.025,0.111,0.038,0.148c0.014,0.036,0.026,0.064,0.035,0.083
		c0.051,0.097,0.117,0.171,0.197,0.222c0.081,0.051,0.172,0.087,0.274,0.111c0.101,0.022,0.212,0.035,0.332,0.041
		c0.12,0.004,0.244,0.007,0.374,0.007h1.342v1.204H110.134z"/>
	<polygon clip-path="url(#SVGID_7_)" fill="#B7B6B6" points="116.917,80.673 116.917,77.033 115.187,77.033 115.187,75.829 
		120.211,75.829 120.211,77.033 118.481,77.033 118.481,80.673 	"/>
	<path clip-path="url(#SVGID_7_)" fill="#B7B6B6" d="M123.256,80.672v-3.931c0-0.101,0.011-0.214,0.035-0.339
		c0.023-0.124,0.075-0.233,0.159-0.325c0.05-0.06,0.129-0.116,0.235-0.17c0.106-0.053,0.242-0.079,0.408-0.079h2.679
		c0.193,0,0.377,0.02,0.553,0.059c0.175,0.04,0.33,0.133,0.464,0.28c0.115,0.12,0.204,0.282,0.266,0.488
		c0.062,0.205,0.094,0.483,0.094,0.833c0,0.083-0.004,0.193-0.011,0.33c-0.007,0.135-0.025,0.277-0.055,0.425
		c-0.03,0.148-0.074,0.291-0.132,0.429c-0.057,0.139-0.137,0.253-0.239,0.34c-0.115,0.097-0.252,0.165-0.411,0.205
		c-0.159,0.038-0.306,0.058-0.44,0.058h-2.041v1.397H123.256z M125.941,78.071c0.097,0,0.191-0.003,0.284-0.01
		c0.092-0.008,0.17-0.045,0.235-0.115c0.083-0.092,0.125-0.232,0.125-0.422c0-0.064-0.007-0.131-0.021-0.201
		c-0.014-0.069-0.053-0.128-0.118-0.179c-0.065-0.057-0.139-0.088-0.225-0.098c-0.085-0.01-0.174-0.014-0.266-0.014h-0.865
		c-0.065,0-0.114,0.01-0.149,0.031c-0.035,0.021-0.062,0.045-0.08,0.073c-0.018,0.026-0.03,0.058-0.034,0.09
		c-0.005,0.032-0.007,0.062-0.007,0.09v0.754H125.941z"/>
	<path clip-path="url(#SVGID_7_)" fill="#B7B6B6" d="M133.996,75.773c0.185,0,0.374,0.004,0.567,0.011
		c0.194,0.007,0.385,0.026,0.571,0.059c0.187,0.032,0.365,0.082,0.533,0.149c0.168,0.066,0.317,0.16,0.447,0.28
		c0.129,0.119,0.23,0.261,0.304,0.422c0.074,0.161,0.129,0.33,0.166,0.505c0.037,0.176,0.059,0.354,0.066,0.537
		c0.007,0.182,0.01,0.354,0.01,0.515c0,0.162-0.003,0.333-0.01,0.512c-0.007,0.181-0.029,0.358-0.066,0.533
		c-0.037,0.176-0.092,0.344-0.166,0.505c-0.074,0.162-0.175,0.306-0.304,0.43c-0.13,0.12-0.279,0.214-0.447,0.28
		c-0.168,0.067-0.346,0.116-0.533,0.149c-0.186,0.032-0.378,0.051-0.574,0.058c-0.196,0.007-0.384,0.012-0.564,0.012
		c-0.18,0-0.368-0.005-0.564-0.012c-0.196-0.007-0.388-0.025-0.575-0.058c-0.186-0.033-0.364-0.082-0.532-0.149
		c-0.169-0.066-0.318-0.16-0.447-0.28c-0.133-0.124-0.236-0.268-0.308-0.43c-0.071-0.161-0.125-0.329-0.162-0.505
		c-0.037-0.175-0.059-0.353-0.066-0.533c-0.007-0.179-0.01-0.35-0.01-0.512c0-0.161,0.003-0.333,0.01-0.515
		c0.007-0.184,0.029-0.361,0.066-0.537c0.037-0.175,0.091-0.344,0.162-0.505c0.072-0.161,0.175-0.303,0.308-0.422
		c0.129-0.12,0.278-0.214,0.447-0.28c0.168-0.067,0.346-0.117,0.532-0.149c0.187-0.032,0.378-0.052,0.572-0.059
		C133.622,75.777,133.813,75.773,133.996,75.773 M132.938,78.25c0,0.194,0.011,0.366,0.031,0.516
		c0.021,0.15,0.071,0.285,0.149,0.404c0.051,0.079,0.108,0.143,0.17,0.191c0.062,0.048,0.129,0.084,0.2,0.106
		c0.072,0.023,0.15,0.038,0.236,0.045c0.085,0.008,0.176,0.011,0.273,0.011c0.102,0,0.195-0.003,0.28-0.011
		c0.086-0.007,0.163-0.021,0.232-0.045c0.069-0.022,0.134-0.059,0.194-0.106c0.06-0.049,0.117-0.112,0.173-0.191
		c0.087-0.128,0.14-0.266,0.156-0.411s0.024-0.314,0.024-0.509c0-0.105-0.001-0.201-0.004-0.284c-0.002-0.083-0.008-0.16-0.017-0.23
		c-0.009-0.072-0.027-0.141-0.052-0.205s-0.061-0.131-0.107-0.2c-0.106-0.157-0.229-0.255-0.367-0.294s-0.309-0.059-0.512-0.059
		c-0.101,0-0.194,0.003-0.277,0.01s-0.161,0.022-0.235,0.049c-0.074,0.025-0.141,0.061-0.201,0.106
		c-0.06,0.047-0.115,0.108-0.166,0.188c-0.088,0.129-0.139,0.264-0.156,0.405C132.945,77.875,132.938,78.047,132.938,78.25"/>
	<path clip-path="url(#SVGID_7_)" fill="#B7B6B6" d="M143.664,80.673l0.069-2.845c0-0.046-0.002-0.088-0.007-0.125
		c-0.004-0.037-0.025-0.055-0.062-0.055c-0.023,0-0.046,0.02-0.069,0.059s-0.06,0.099-0.111,0.177l-1.377,2.353
		c-0.032,0.055-0.074,0.113-0.125,0.173c-0.05,0.061-0.116,0.113-0.197,0.159s-0.18,0.084-0.298,0.114
		c-0.117,0.031-0.259,0.045-0.425,0.045c-0.24,0-0.431-0.033-0.571-0.1c-0.141-0.067-0.249-0.155-0.326-0.264
		c-0.076-0.108-0.125-0.231-0.148-0.37c-0.023-0.138-0.035-0.28-0.035-0.429v-3.737h1.592l-0.069,2.775v0.076
		c0,0.032,0.003,0.067,0.01,0.106c0.007,0.039,0.031,0.06,0.073,0.06c0.023,0,0.044-0.016,0.062-0.045
		c0.018-0.03,0.044-0.073,0.076-0.128l1.336-2.332c0.074-0.135,0.157-0.239,0.249-0.315c0.092-0.076,0.186-0.133,0.28-0.169
		c0.094-0.038,0.187-0.06,0.277-0.07c0.09-0.009,0.17-0.014,0.239-0.014c0.277,0,0.492,0.044,0.647,0.132
		c0.154,0.087,0.268,0.194,0.343,0.318c0.073,0.125,0.118,0.256,0.134,0.395c0.016,0.139,0.025,0.256,0.025,0.353v3.703H143.664z"/>
	<polygon clip-path="url(#SVGID_7_)" fill="#B7B6B6" points="150.031,80.673 150.031,77.033 148.301,77.033 148.301,75.829 
		153.325,75.829 153.325,77.033 151.595,77.033 151.595,80.673 	"/>
	<path clip-path="url(#SVGID_7_)" fill="#B7B6B6" d="M157.18,80.673c-0.102,0-0.202-0.009-0.301-0.024
		c-0.099-0.017-0.195-0.063-0.287-0.142c-0.111-0.093-0.176-0.188-0.194-0.287c-0.019-0.1-0.028-0.207-0.028-0.322v-3.322
		c0-0.092,0.012-0.187,0.035-0.284c0.023-0.097,0.081-0.186,0.173-0.269c0.092-0.083,0.191-0.137,0.297-0.16
		c0.107-0.022,0.203-0.034,0.291-0.034h3.481v1.177h-2.394c-0.047,0-0.092,0.006-0.136,0.018c-0.043,0.011-0.079,0.028-0.106,0.051
		c-0.038,0.033-0.06,0.072-0.066,0.118c-0.007,0.046-0.011,0.085-0.011,0.118v0.366h2.644v1.052h-2.644v0.527
		c0,0.05,0.007,0.089,0.021,0.116c0.014,0.028,0.03,0.05,0.049,0.063c0.036,0.037,0.083,0.057,0.138,0.059
		c0.055,0.002,0.108,0.004,0.159,0.004h2.367v1.177H157.18z"/>
	<path clip-path="url(#SVGID_7_)" fill="#B7B6B6" d="M165.229,76.272c0.051-0.115,0.12-0.207,0.208-0.273
		c0.087-0.067,0.181-0.118,0.28-0.153c0.099-0.033,0.199-0.055,0.298-0.062c0.099-0.007,0.185-0.011,0.259-0.011
		c0.074,0,0.161,0.004,0.26,0.011s0.198,0.028,0.297,0.062c0.1,0.035,0.193,0.086,0.28,0.153c0.088,0.066,0.158,0.158,0.208,0.273
		l1.862,4.4h-1.661l-1.17-3.204c-0.009-0.014-0.019-0.037-0.031-0.068c-0.011-0.032-0.027-0.049-0.045-0.049
		s-0.033,0.017-0.045,0.049c-0.011,0.031-0.022,0.055-0.031,0.068l-1.17,3.204h-1.66L165.229,76.272z"/>
	<path clip-path="url(#SVGID_7_)" fill="#B7B6B6" d="M173.651,75.829v1.751h2.173c0.069,0,0.147,0.005,0.235,0.014
		s0.175,0.032,0.263,0.069s0.172,0.093,0.253,0.166c0.08,0.074,0.153,0.176,0.218,0.305c0.078,0.166,0.129,0.333,0.152,0.502
		c0.023,0.168,0.035,0.34,0.035,0.515c0,0.172-0.014,0.353-0.042,0.545c-0.028,0.19-0.09,0.359-0.187,0.508
		c-0.032,0.051-0.077,0.103-0.135,0.155c-0.057,0.054-0.126,0.104-0.204,0.152s-0.171,0.088-0.277,0.118
		c-0.106,0.029-0.223,0.045-0.353,0.045h-3.003c-0.107,0-0.202-0.025-0.287-0.073c-0.086-0.048-0.153-0.103-0.204-0.163
		c-0.088-0.101-0.143-0.212-0.166-0.332c-0.024-0.12-0.035-0.234-0.035-0.346v-3.931H173.651z M173.651,79.178
		c0,0.037,0.001,0.075,0.003,0.114c0.003,0.039,0.015,0.073,0.039,0.1c0.027,0.037,0.065,0.06,0.114,0.066
		c0.048,0.007,0.095,0.011,0.141,0.011h0.81h0.284c0.069,0,0.127-0.014,0.173-0.042c0.037-0.022,0.073-0.063,0.107-0.124
		c0.035-0.061,0.052-0.147,0.052-0.264c0-0.064-0.009-0.128-0.028-0.19c-0.018-0.062-0.071-0.111-0.159-0.148
		c-0.051-0.019-0.108-0.027-0.173-0.027h-0.228h-1.135V79.178z"/>
	<path clip-path="url(#SVGID_7_)" fill="#B7B6B6" d="M182.259,80.673c-0.189,0-0.363-0.009-0.522-0.024
		c-0.16-0.017-0.306-0.046-0.44-0.09c-0.134-0.044-0.259-0.104-0.374-0.18c-0.115-0.076-0.221-0.178-0.318-0.302
		c-0.074-0.088-0.138-0.186-0.194-0.294c-0.055-0.108-0.102-0.232-0.138-0.374c-0.037-0.141-0.065-0.301-0.083-0.48
		c-0.019-0.181-0.028-0.386-0.028-0.616c0-0.406,0.026-0.761,0.079-1.066c0.054-0.304,0.168-0.566,0.343-0.788
		c0.111-0.143,0.236-0.257,0.374-0.34s0.282-0.146,0.432-0.189s0.301-0.071,0.453-0.083c0.153-0.012,0.298-0.018,0.437-0.018h2.048
		v1.204h-1.294c-0.129,0-0.249,0.001-0.36,0.003c-0.111,0.003-0.212,0.017-0.305,0.042c-0.092,0.025-0.175,0.063-0.249,0.114
		c-0.073,0.051-0.138,0.125-0.194,0.221c-0.036,0.061-0.065,0.129-0.086,0.205c-0.02,0.076-0.036,0.154-0.045,0.235
		c-0.009,0.081-0.016,0.158-0.02,0.231c-0.005,0.074-0.008,0.142-0.008,0.2c0,0.134,0.005,0.247,0.014,0.34
		c0.01,0.093,0.02,0.169,0.031,0.232c0.012,0.062,0.025,0.111,0.038,0.148c0.014,0.036,0.026,0.064,0.035,0.083
		c0.051,0.097,0.117,0.171,0.197,0.222c0.081,0.051,0.172,0.087,0.274,0.111c0.101,0.022,0.212,0.035,0.332,0.041
		c0.12,0.004,0.244,0.007,0.374,0.007h1.342v1.204H182.259z"/>
	<polygon clip-path="url(#SVGID_7_)" fill="#B7B6B6" points="189.042,80.673 189.042,77.033 187.312,77.033 187.312,75.829 
		192.336,75.829 192.336,77.033 190.606,77.033 190.606,80.673 	"/>
	<path clip-path="url(#SVGID_7_)" fill="#B7B6B6" d="M195.381,76.61c0-0.235,0.055-0.415,0.166-0.539
		c0.06-0.069,0.139-0.127,0.238-0.173s0.201-0.069,0.308-0.069h2.63c0.088,0,0.179,0.003,0.273,0.011
		c0.095,0.007,0.188,0.021,0.28,0.041s0.182,0.052,0.268,0.094c0.085,0.041,0.162,0.099,0.231,0.173
		c0.068,0.069,0.123,0.148,0.162,0.235c0.039,0.088,0.069,0.178,0.09,0.27c0.021,0.093,0.035,0.186,0.042,0.277
		c0.006,0.092,0.011,0.178,0.011,0.256c0,0.134-0.014,0.263-0.038,0.387c-0.026,0.125-0.095,0.247-0.204,0.368
		c-0.135,0.147-0.296,0.228-0.485,0.242v0.026c0.125,0.01,0.236,0.038,0.332,0.088c0.097,0.048,0.178,0.103,0.242,0.162
		c0.13,0.124,0.206,0.262,0.229,0.411c0.023,0.15,0.035,0.299,0.035,0.447c0,0.078-0.001,0.16-0.004,0.245
		c-0.002,0.086-0.013,0.172-0.031,0.26c-0.019,0.087-0.047,0.175-0.086,0.263c-0.04,0.088-0.096,0.171-0.17,0.249
		c-0.079,0.083-0.159,0.148-0.242,0.193c-0.083,0.047-0.17,0.08-0.26,0.102c-0.09,0.021-0.184,0.033-0.284,0.037
		c-0.099,0.006-0.198,0.008-0.3,0.008h-2.534h-0.172c-0.06,0-0.123-0.008-0.187-0.021c-0.065-0.014-0.127-0.037-0.188-0.069
		c-0.06-0.031-0.118-0.077-0.173-0.139c-0.06-0.068-0.104-0.153-0.135-0.252s-0.045-0.195-0.045-0.287V76.61z M198.107,77.69
		c0.064,0,0.132-0.005,0.204-0.017c0.071-0.013,0.128-0.05,0.169-0.114c0.02-0.033,0.031-0.07,0.038-0.111
		c0.007-0.042,0.01-0.078,0.01-0.109c0-0.048-0.006-0.088-0.02-0.122c-0.015-0.034-0.032-0.063-0.056-0.086
		c-0.051-0.052-0.109-0.08-0.177-0.088c-0.066-0.007-0.125-0.01-0.176-0.01h-0.893c-0.037,0-0.072,0.002-0.104,0.007
		c-0.032,0.006-0.064,0.021-0.097,0.049c-0.037,0.032-0.057,0.065-0.06,0.101c-0.002,0.034-0.003,0.07-0.003,0.107v0.394H198.107z
		 M196.944,79.109c0,0.083,0.004,0.146,0.015,0.19c0.009,0.044,0.022,0.077,0.041,0.101c0.031,0.037,0.08,0.057,0.142,0.063
		c0.062,0.004,0.112,0.007,0.149,0.007h0.829c0.148,0,0.251-0.013,0.309-0.035c0.058-0.023,0.094-0.044,0.107-0.063
		c0.023-0.027,0.044-0.068,0.063-0.125c0.018-0.055,0.028-0.107,0.028-0.158c0-0.083-0.021-0.152-0.063-0.208
		c-0.051-0.069-0.114-0.109-0.189-0.121c-0.076-0.012-0.147-0.018-0.212-0.018h-1.218V79.109z"/>
	<path clip-path="url(#SVGID_7_)" fill="#B7B6B6" d="M206.038,75.773c0.185,0,0.373,0.004,0.566,0.011
		c0.194,0.007,0.385,0.026,0.571,0.059c0.188,0.032,0.364,0.082,0.533,0.149c0.168,0.066,0.316,0.16,0.446,0.28
		c0.129,0.119,0.23,0.261,0.305,0.422s0.129,0.33,0.166,0.505c0.037,0.176,0.059,0.354,0.065,0.537
		c0.007,0.182,0.011,0.354,0.011,0.515c0,0.162-0.004,0.333-0.011,0.512c-0.007,0.181-0.028,0.358-0.065,0.533
		c-0.037,0.176-0.092,0.344-0.166,0.505c-0.074,0.162-0.176,0.306-0.305,0.43c-0.13,0.12-0.278,0.214-0.446,0.28
		c-0.169,0.067-0.346,0.116-0.533,0.149c-0.187,0.032-0.378,0.051-0.574,0.058s-0.384,0.012-0.563,0.012
		c-0.181,0-0.368-0.005-0.564-0.012s-0.388-0.025-0.575-0.058c-0.186-0.033-0.363-0.082-0.531-0.149
		c-0.169-0.066-0.318-0.16-0.447-0.28c-0.133-0.124-0.236-0.268-0.309-0.43c-0.07-0.161-0.125-0.329-0.161-0.505
		c-0.037-0.175-0.06-0.353-0.066-0.533c-0.007-0.179-0.01-0.35-0.01-0.512c0-0.161,0.003-0.333,0.01-0.515
		c0.007-0.184,0.029-0.361,0.066-0.537c0.036-0.175,0.091-0.344,0.161-0.505c0.072-0.161,0.176-0.303,0.309-0.422
		c0.129-0.12,0.278-0.214,0.447-0.28c0.168-0.067,0.346-0.117,0.531-0.149c0.188-0.032,0.378-0.052,0.572-0.059
		C205.664,75.777,205.854,75.773,206.038,75.773 M204.979,78.25c0,0.194,0.012,0.366,0.031,0.516
		c0.021,0.15,0.071,0.285,0.149,0.404c0.051,0.079,0.107,0.143,0.17,0.191c0.062,0.048,0.129,0.084,0.199,0.106
		c0.072,0.023,0.15,0.038,0.236,0.045c0.085,0.008,0.176,0.011,0.273,0.011c0.102,0,0.193-0.003,0.279-0.011
		c0.085-0.007,0.162-0.021,0.232-0.045c0.069-0.022,0.134-0.059,0.194-0.106c0.06-0.049,0.116-0.112,0.173-0.191
		c0.087-0.128,0.14-0.266,0.155-0.411c0.017-0.146,0.024-0.314,0.024-0.509c0-0.105-0.001-0.201-0.004-0.284
		c-0.002-0.083-0.008-0.16-0.017-0.23c-0.011-0.072-0.027-0.141-0.053-0.205s-0.061-0.131-0.106-0.2
		c-0.106-0.157-0.229-0.255-0.367-0.294c-0.139-0.039-0.309-0.059-0.512-0.059c-0.102,0-0.194,0.003-0.277,0.01
		s-0.161,0.022-0.235,0.049c-0.073,0.025-0.141,0.061-0.2,0.106c-0.061,0.047-0.115,0.108-0.166,0.188
		c-0.089,0.129-0.14,0.264-0.156,0.405C204.986,77.875,204.979,78.047,204.979,78.25"/>
	<path clip-path="url(#SVGID_7_)" fill="#B7B6B6" d="M218.362,80.673c-0.189,0-0.363-0.009-0.522-0.024
		c-0.16-0.017-0.306-0.046-0.439-0.09c-0.135-0.044-0.26-0.104-0.374-0.18c-0.115-0.076-0.223-0.178-0.318-0.302
		c-0.074-0.088-0.139-0.186-0.194-0.294c-0.055-0.108-0.101-0.232-0.138-0.374c-0.037-0.141-0.064-0.301-0.083-0.48
		c-0.019-0.181-0.028-0.386-0.028-0.616c0-0.406,0.027-0.761,0.079-1.066c0.054-0.304,0.167-0.566,0.344-0.788
		c0.11-0.143,0.235-0.257,0.374-0.34c0.138-0.083,0.281-0.146,0.432-0.189s0.302-0.071,0.454-0.083
		c0.151-0.012,0.297-0.018,0.436-0.018h2.048v1.204h-1.294c-0.129,0-0.25,0.001-0.359,0.003c-0.11,0.003-0.212,0.017-0.306,0.042
		c-0.091,0.025-0.174,0.063-0.249,0.114c-0.073,0.051-0.138,0.125-0.192,0.221c-0.037,0.061-0.066,0.129-0.087,0.205
		s-0.036,0.154-0.045,0.235c-0.01,0.081-0.017,0.158-0.021,0.231c-0.005,0.074-0.007,0.142-0.007,0.2
		c0,0.134,0.004,0.247,0.013,0.34c0.01,0.093,0.021,0.169,0.032,0.232c0.01,0.062,0.024,0.111,0.038,0.148
		c0.013,0.036,0.025,0.064,0.034,0.083c0.051,0.097,0.116,0.171,0.197,0.222c0.08,0.051,0.172,0.087,0.273,0.111
		c0.102,0.022,0.212,0.035,0.332,0.041c0.12,0.004,0.245,0.007,0.374,0.007h1.343v1.204H218.362z"/>
	<path clip-path="url(#SVGID_7_)" fill="#B7B6B6" d="M224.569,80.673c-0.103,0-0.201-0.009-0.301-0.024
		c-0.099-0.017-0.194-0.063-0.287-0.142c-0.11-0.093-0.177-0.188-0.193-0.287c-0.019-0.1-0.029-0.207-0.029-0.322v-3.322
		c0-0.092,0.013-0.187,0.036-0.284c0.022-0.097,0.08-0.186,0.172-0.269c0.093-0.083,0.192-0.137,0.298-0.16
		c0.106-0.022,0.202-0.034,0.29-0.034h3.482v1.177h-2.395c-0.047,0-0.092,0.006-0.136,0.018c-0.043,0.011-0.08,0.028-0.106,0.051
		c-0.037,0.033-0.06,0.072-0.065,0.118c-0.008,0.046-0.011,0.085-0.011,0.118v0.366h2.643v1.052h-2.643v0.527
		c0,0.05,0.007,0.089,0.02,0.116c0.015,0.028,0.031,0.05,0.05,0.063c0.036,0.037,0.083,0.057,0.138,0.059
		c0.056,0.002,0.107,0.004,0.159,0.004h2.366v1.177H224.569z"/>
	<polygon clip-path="url(#SVGID_7_)" fill="#B7B6B6" points="232.626,80.673 232.626,77.033 230.896,77.033 230.896,75.829 
		235.92,75.829 235.92,77.033 234.188,77.033 234.188,80.673 	"/>
	<path clip-path="url(#SVGID_7_)" fill="#B7B6B6" d="M239.774,80.673c-0.103,0-0.201-0.009-0.301-0.024
		c-0.099-0.017-0.194-0.063-0.287-0.142c-0.11-0.093-0.177-0.188-0.193-0.287c-0.019-0.1-0.029-0.207-0.029-0.322v-3.322
		c0-0.092,0.013-0.187,0.036-0.284c0.022-0.097,0.08-0.186,0.172-0.269c0.093-0.083,0.192-0.137,0.298-0.16
		c0.106-0.022,0.202-0.034,0.29-0.034h3.482v1.177h-2.395c-0.047,0-0.092,0.006-0.136,0.018c-0.043,0.011-0.08,0.028-0.106,0.051
		c-0.037,0.033-0.06,0.072-0.065,0.118c-0.008,0.046-0.011,0.085-0.011,0.118v0.366h2.643v1.052h-2.643v0.527
		c0,0.05,0.007,0.089,0.02,0.116c0.015,0.028,0.031,0.05,0.05,0.063c0.036,0.037,0.083,0.057,0.138,0.059
		c0.056,0.002,0.107,0.004,0.159,0.004h2.366v1.177H239.774z"/>
	<path clip-path="url(#SVGID_7_)" fill="#B7B6B6" d="M250.196,80.673l0.069-2.845c0-0.046-0.002-0.088-0.007-0.124
		c-0.006-0.037-0.025-0.056-0.063-0.056c-0.022,0-0.046,0.02-0.069,0.059c-0.022,0.039-0.06,0.098-0.11,0.176l-1.377,2.354
		c-0.032,0.056-0.074,0.113-0.125,0.173s-0.116,0.114-0.197,0.16c-0.08,0.046-0.18,0.084-0.297,0.113
		c-0.118,0.03-0.26,0.045-0.426,0.045c-0.24,0-0.432-0.033-0.571-0.1c-0.141-0.067-0.249-0.155-0.325-0.264
		c-0.077-0.108-0.126-0.232-0.148-0.37c-0.023-0.139-0.035-0.281-0.035-0.429v-3.737h1.592l-0.07,2.774
		c0,0.061,0.003,0.116,0.007,0.166c0.006,0.052,0.031,0.076,0.077,0.076c0.023,0,0.043-0.014,0.063-0.045
		c0.019-0.029,0.044-0.072,0.076-0.127l1.336-2.333c0.072-0.133,0.155-0.238,0.249-0.313c0.092-0.077,0.186-0.134,0.279-0.171
		c0.096-0.036,0.188-0.06,0.277-0.068c0.091-0.01,0.17-0.014,0.239-0.014c0.275,0,0.492,0.044,0.646,0.131
		c0.155,0.088,0.27,0.193,0.342,0.318c0.075,0.124,0.119,0.256,0.136,0.395s0.023,0.256,0.023,0.353v3.703H250.196z M248.308,74.528
		c0.021,0.056,0.057,0.113,0.101,0.177c0.043,0.062,0.092,0.116,0.148,0.162c0.072,0.056,0.164,0.098,0.27,0.128
		c0.106,0.031,0.208,0.045,0.305,0.045s0.2-0.014,0.312-0.045c0.11-0.03,0.2-0.072,0.269-0.128c0.052-0.041,0.1-0.096,0.144-0.162
		c0.043-0.067,0.077-0.126,0.099-0.177h0.978c-0.028,0.078-0.063,0.158-0.104,0.241c-0.041,0.083-0.089,0.166-0.142,0.25
		c-0.053,0.083-0.11,0.161-0.173,0.235s-0.128,0.136-0.197,0.188c-0.153,0.114-0.335,0.198-0.547,0.252
		c-0.212,0.053-0.425,0.08-0.637,0.08c-0.213,0-0.426-0.027-0.637-0.08c-0.212-0.054-0.395-0.138-0.547-0.252
		c-0.07-0.052-0.135-0.113-0.198-0.188c-0.061-0.074-0.12-0.152-0.172-0.235c-0.053-0.084-0.101-0.167-0.142-0.25
		c-0.042-0.083-0.076-0.163-0.104-0.241H248.308z"/>
	<path clip-path="url(#SVGID_7_)" fill="#B7B6B6" d="M259.491,79.469h1.445c0.249,0,0.437-0.014,0.562-0.038
		c0.124-0.025,0.217-0.051,0.276-0.073c0.171-0.069,0.283-0.162,0.339-0.28s0.081-0.227,0.076-0.329h-2.539v-1.093h2.539
		c-0.027-0.143-0.078-0.25-0.152-0.318c-0.073-0.069-0.141-0.119-0.2-0.152c-0.12-0.064-0.246-0.106-0.377-0.124
		c-0.132-0.02-0.277-0.028-0.433-0.028h-1.475v-1.204h2.318c0.369,0,0.669,0.049,0.9,0.149c0.23,0.099,0.407,0.211,0.532,0.335
		c0.115,0.115,0.205,0.249,0.271,0.402c0.063,0.151,0.111,0.311,0.145,0.477c0.032,0.166,0.053,0.337,0.063,0.512
		c0.01,0.176,0.014,0.344,0.014,0.505c0,0.245-0.008,0.471-0.023,0.676c-0.017,0.206-0.046,0.394-0.088,0.563
		c-0.041,0.171-0.099,0.323-0.172,0.457c-0.075,0.134-0.169,0.251-0.285,0.354c-0.101,0.087-0.211,0.158-0.327,0.214
		c-0.118,0.056-0.238,0.099-0.36,0.128c-0.122,0.03-0.241,0.05-0.357,0.059c-0.114,0.01-0.218,0.014-0.311,0.014h-2.38V79.469z"/>
	<path clip-path="url(#SVGID_7_)" fill="#B7B6B6" d="M268.426,76.272c0.051-0.115,0.119-0.207,0.207-0.273
		c0.088-0.067,0.182-0.118,0.279-0.153c0.101-0.033,0.199-0.055,0.299-0.062s0.186-0.011,0.26-0.011c0.073,0,0.16,0.004,0.26,0.011
		c0.098,0.007,0.198,0.028,0.297,0.062c0.1,0.035,0.192,0.086,0.28,0.153c0.088,0.066,0.157,0.158,0.208,0.273l1.861,4.4h-1.661
		l-1.169-3.204c-0.011-0.014-0.02-0.037-0.031-0.068c-0.012-0.032-0.027-0.049-0.045-0.049c-0.02,0-0.034,0.017-0.045,0.049
		c-0.013,0.031-0.022,0.055-0.031,0.068l-1.17,3.204h-1.661L268.426,76.272z"/>
	<path clip-path="url(#SVGID_7_)" fill="#B7B6B6" d="M276.094,80.673c-0.103,0-0.201-0.009-0.301-0.024
		c-0.099-0.017-0.194-0.063-0.287-0.142c-0.11-0.093-0.177-0.188-0.193-0.287c-0.019-0.1-0.029-0.207-0.029-0.322v-3.322
		c0-0.092,0.013-0.187,0.036-0.284c0.022-0.097,0.08-0.186,0.172-0.269c0.093-0.083,0.192-0.137,0.298-0.16
		c0.106-0.022,0.202-0.034,0.29-0.034h3.482v1.177h-2.396c-0.046,0-0.091,0.006-0.135,0.018c-0.043,0.011-0.08,0.028-0.106,0.051
		c-0.037,0.033-0.06,0.072-0.065,0.118c-0.008,0.046-0.011,0.085-0.011,0.118v0.366h2.643v1.052h-2.643v0.527
		c0,0.05,0.007,0.089,0.02,0.116c0.015,0.028,0.031,0.05,0.05,0.063c0.036,0.037,0.082,0.057,0.138,0.059s0.107,0.004,0.159,0.004
		h2.366v1.177H276.094z"/>
	<path clip-path="url(#SVGID_7_)" fill="#B7B6B6" d="M282.973,75.829h1.563v4.845h-1.563V75.829z M286.439,80.673l-1.467-1.875
		c-0.06-0.079-0.122-0.173-0.187-0.281c-0.065-0.108-0.097-0.216-0.097-0.322c0-0.092,0.022-0.187,0.071-0.283
		c0.05-0.097,0.099-0.182,0.149-0.256l1.301-1.827h1.855l-1.683,2c-0.092,0.106-0.148,0.188-0.17,0.242
		c-0.02,0.055-0.03,0.095-0.03,0.118c0,0.078,0.029,0.156,0.09,0.235s0.115,0.145,0.166,0.2l1.883,2.049H286.439z"/>
	<polygon clip-path="url(#SVGID_7_)" fill="#B7B6B6" points="292.612,80.673 292.612,77.033 290.882,77.033 290.882,75.829 
		295.906,75.829 295.906,77.033 294.175,77.033 294.175,80.673 	"/>
	<path clip-path="url(#SVGID_7_)" fill="#B7B6B6" d="M298.95,80.672v-3.931c0-0.101,0.013-0.214,0.036-0.339
		c0.022-0.124,0.076-0.233,0.159-0.325c0.051-0.06,0.129-0.116,0.235-0.17c0.105-0.053,0.241-0.079,0.407-0.079h2.679
		c0.193,0,0.379,0.02,0.554,0.059c0.176,0.04,0.33,0.133,0.464,0.28c0.115,0.12,0.204,0.282,0.266,0.488
		c0.063,0.205,0.095,0.483,0.095,0.833c0,0.083-0.004,0.193-0.011,0.33c-0.008,0.135-0.025,0.277-0.056,0.425
		c-0.031,0.148-0.074,0.291-0.131,0.429c-0.059,0.139-0.138,0.253-0.24,0.34c-0.114,0.097-0.252,0.165-0.412,0.205
		c-0.158,0.038-0.305,0.058-0.438,0.058h-2.041v1.397H298.95z M301.637,78.071c0.097,0,0.19-0.003,0.283-0.01
		c0.093-0.008,0.171-0.045,0.235-0.115c0.083-0.092,0.125-0.232,0.125-0.422c0-0.064-0.007-0.131-0.021-0.201
		c-0.015-0.069-0.055-0.128-0.118-0.179c-0.065-0.057-0.14-0.088-0.226-0.098s-0.174-0.014-0.266-0.014h-0.866
		c-0.063,0-0.113,0.01-0.147,0.031c-0.035,0.021-0.063,0.045-0.08,0.073c-0.02,0.026-0.029,0.058-0.034,0.09
		s-0.007,0.062-0.007,0.09v0.754H301.637z"/>
	<path clip-path="url(#SVGID_7_)" fill="#B7B6B6" d="M309.691,75.773c0.185,0,0.374,0.004,0.567,0.011
		c0.192,0.007,0.384,0.026,0.571,0.059c0.187,0.032,0.364,0.082,0.531,0.149c0.169,0.066,0.318,0.16,0.447,0.28
		c0.13,0.119,0.231,0.261,0.304,0.422c0.075,0.161,0.129,0.33,0.166,0.505c0.038,0.176,0.061,0.354,0.067,0.537
		c0.007,0.182,0.01,0.354,0.01,0.515c0,0.162-0.003,0.333-0.01,0.512c-0.007,0.181-0.029,0.358-0.067,0.533
		c-0.037,0.176-0.091,0.344-0.166,0.505c-0.072,0.162-0.174,0.306-0.304,0.43c-0.129,0.12-0.278,0.214-0.447,0.28
		c-0.167,0.067-0.345,0.116-0.531,0.149c-0.188,0.032-0.38,0.051-0.575,0.058s-0.385,0.012-0.563,0.012
		c-0.18,0-0.369-0.005-0.564-0.012s-0.388-0.025-0.574-0.058c-0.188-0.033-0.364-0.082-0.532-0.149
		c-0.169-0.066-0.318-0.16-0.448-0.28c-0.133-0.124-0.235-0.268-0.307-0.43c-0.071-0.161-0.126-0.329-0.162-0.505
		c-0.037-0.175-0.06-0.353-0.067-0.533c-0.007-0.179-0.009-0.35-0.009-0.512c0-0.161,0.002-0.333,0.009-0.515
		c0.008-0.184,0.03-0.361,0.067-0.537c0.036-0.175,0.091-0.344,0.162-0.505s0.174-0.303,0.307-0.422
		c0.13-0.12,0.279-0.214,0.448-0.28c0.168-0.067,0.345-0.117,0.532-0.149c0.187-0.032,0.377-0.052,0.571-0.059
		C309.317,75.777,309.507,75.773,309.691,75.773 M308.633,78.25c0,0.194,0.01,0.366,0.031,0.516c0.021,0.15,0.07,0.285,0.148,0.404
		c0.05,0.079,0.107,0.143,0.17,0.191c0.062,0.048,0.129,0.084,0.2,0.106c0.071,0.023,0.15,0.038,0.235,0.045
		c0.085,0.008,0.177,0.011,0.273,0.011c0.102,0,0.194-0.003,0.28-0.011c0.085-0.007,0.162-0.021,0.23-0.045
		c0.07-0.022,0.135-0.059,0.195-0.106c0.06-0.049,0.117-0.112,0.172-0.191c0.088-0.128,0.141-0.266,0.156-0.411
		s0.024-0.314,0.024-0.509c0-0.105-0.001-0.201-0.004-0.284s-0.009-0.16-0.017-0.23c-0.01-0.072-0.027-0.141-0.052-0.205
		c-0.025-0.064-0.063-0.131-0.108-0.2c-0.105-0.157-0.228-0.255-0.367-0.294c-0.137-0.039-0.308-0.059-0.511-0.059
		c-0.102,0-0.195,0.003-0.277,0.01c-0.083,0.007-0.161,0.022-0.234,0.049c-0.074,0.025-0.143,0.061-0.201,0.106
		c-0.06,0.047-0.116,0.108-0.166,0.188c-0.088,0.129-0.14,0.264-0.157,0.405C308.641,77.875,308.633,78.047,308.633,78.25"/>
	<path clip-path="url(#SVGID_7_)" fill="#B7B6B6" d="M317.637,80.673c-0.189,0-0.363-0.009-0.522-0.024
		c-0.16-0.017-0.306-0.046-0.439-0.09c-0.135-0.044-0.26-0.104-0.374-0.18c-0.115-0.076-0.223-0.178-0.318-0.302
		c-0.074-0.088-0.139-0.186-0.194-0.294c-0.055-0.108-0.101-0.232-0.138-0.374c-0.037-0.141-0.064-0.301-0.083-0.48
		c-0.019-0.181-0.028-0.386-0.028-0.616c0-0.406,0.027-0.761,0.079-1.066c0.054-0.304,0.167-0.566,0.344-0.788
		c0.11-0.143,0.235-0.257,0.374-0.34c0.138-0.083,0.281-0.146,0.432-0.189s0.302-0.071,0.454-0.083
		c0.151-0.012,0.297-0.018,0.436-0.018h2.048v1.204h-1.294c-0.129,0-0.25,0.001-0.359,0.003c-0.11,0.003-0.212,0.017-0.306,0.042
		c-0.091,0.025-0.174,0.063-0.249,0.114c-0.073,0.051-0.138,0.125-0.192,0.221c-0.037,0.061-0.066,0.129-0.087,0.205
		s-0.036,0.154-0.045,0.235c-0.01,0.081-0.017,0.158-0.021,0.231c-0.005,0.074-0.007,0.142-0.007,0.2
		c0,0.134,0.004,0.247,0.013,0.34c0.01,0.093,0.021,0.169,0.032,0.232c0.01,0.062,0.024,0.111,0.038,0.148
		c0.013,0.036,0.025,0.064,0.034,0.083c0.051,0.097,0.116,0.171,0.197,0.222c0.08,0.051,0.172,0.087,0.273,0.111
		c0.102,0.022,0.212,0.035,0.332,0.041c0.12,0.004,0.245,0.007,0.374,0.007h1.343v1.204H317.637z"/>
	<polygon clip-path="url(#SVGID_7_)" fill="#B7B6B6" points="327.92,80.673 326.356,80.673 326.356,78.749 324.599,78.749 
		324.599,80.673 323.033,80.673 323.033,75.829 324.599,75.829 324.599,77.545 326.356,77.545 326.356,75.829 327.92,75.829 	"/>
	<path clip-path="url(#SVGID_7_)" fill="#B7B6B6" d="M332.688,76.361c0.036-0.087,0.08-0.168,0.13-0.242
		c0.051-0.072,0.119-0.136,0.202-0.187c0.083-0.05,0.186-0.09,0.307-0.117c0.122-0.028,0.279-0.042,0.469-0.042
		c0.114,0,0.227,0.006,0.335,0.018c0.107,0.012,0.21,0.037,0.305,0.076c0.094,0.039,0.182,0.099,0.262,0.176
		c0.081,0.079,0.15,0.186,0.204,0.318l1.793,4.313h-1.646l-0.381-0.997h-1.743l-0.381,0.997h-1.647L332.688,76.361z M333.297,78.569
		h0.997l-0.437-1.225c-0.009-0.019-0.02-0.04-0.032-0.066c-0.01-0.024-0.021-0.038-0.029-0.038c-0.011,0-0.021,0.014-0.031,0.038
		c-0.012,0.026-0.023,0.048-0.031,0.066L333.297,78.569z"/>
	<path clip-path="url(#SVGID_7_)" fill="#B7B6B6" d="M344.259,77.033h-2.726c-0.074,0-0.131,0.007-0.17,0.021
		c-0.039,0.015-0.068,0.034-0.087,0.06c-0.02,0.024-0.029,0.055-0.034,0.09c-0.005,0.034-0.007,0.075-0.007,0.121v0.346h2.234
		c0.19,0,0.352,0.032,0.485,0.097c0.134,0.065,0.237,0.139,0.311,0.222c0.065,0.073,0.115,0.161,0.153,0.26
		c0.036,0.099,0.064,0.2,0.083,0.304c0.019,0.104,0.029,0.205,0.034,0.305s0.007,0.19,0.007,0.273c0,0.208-0.015,0.417-0.045,0.626
		c-0.031,0.21-0.104,0.392-0.225,0.544c-0.015,0.023-0.041,0.055-0.08,0.097c-0.039,0.041-0.092,0.083-0.159,0.124
		c-0.067,0.042-0.146,0.078-0.236,0.108c-0.089,0.029-0.193,0.044-0.313,0.044h-3.136c-0.202,0-0.366-0.063-0.49-0.189
		c-0.125-0.128-0.188-0.29-0.188-0.488v-3.392c0-0.184,0.031-0.327,0.093-0.432c0.063-0.104,0.136-0.181,0.219-0.232
		c0.083-0.051,0.167-0.081,0.253-0.094c0.085-0.011,0.147-0.017,0.189-0.017h3.834V77.033z M341.235,79.151
		c0,0.083,0.007,0.146,0.021,0.189s0.035,0.075,0.063,0.094c0.026,0.019,0.063,0.028,0.104,0.031
		c0.042,0.002,0.089,0.003,0.146,0.003h0.921c0.046,0,0.104-0.003,0.176-0.01c0.071-0.007,0.133-0.034,0.183-0.079
		c0.047-0.042,0.073-0.092,0.08-0.149s0.011-0.107,0.011-0.148c0-0.056-0.006-0.106-0.015-0.153
		c-0.009-0.046-0.039-0.087-0.089-0.124c-0.051-0.042-0.11-0.065-0.177-0.073c-0.067-0.007-0.123-0.01-0.169-0.01h-1.253V79.151z"/>
	<path clip-path="url(#SVGID_7_)" fill="#B7B6B6" d="M348.964,78.625c0.098-0.13,0.161-0.226,0.191-0.291
		c0.03-0.064,0.045-0.115,0.045-0.151c0-0.061-0.021-0.12-0.063-0.181c-0.041-0.06-0.083-0.119-0.123-0.18l-1.386-1.993h1.8
		l1.086,1.8c0.052,0.087,0.102,0.178,0.15,0.27c0.047,0.092,0.072,0.182,0.072,0.27c0,0.098-0.026,0.199-0.079,0.309
		c-0.054,0.107-0.121,0.227-0.204,0.355l-1.177,1.842h-1.897L348.964,78.625z M350.889,75.829h1.563v4.845h-1.563V75.829z
		 M354.065,80.673l-1.177-1.842c-0.084-0.129-0.151-0.248-0.204-0.355c-0.054-0.109-0.079-0.211-0.079-0.309
		c0-0.077,0.021-0.161,0.062-0.249c0.042-0.088,0.094-0.185,0.159-0.29l1.114-1.8h1.8l-1.412,1.993
		c-0.041,0.061-0.083,0.12-0.124,0.18c-0.042,0.061-0.063,0.12-0.063,0.181c0,0.036,0.015,0.087,0.045,0.151
		c0.029,0.065,0.094,0.161,0.19,0.291l1.584,2.049H354.065z"/>
	<path clip-path="url(#SVGID_7_)" fill="#B7B6B6" d="M359.747,80.673c-0.103,0-0.201-0.009-0.302-0.024
		c-0.098-0.017-0.193-0.063-0.286-0.142c-0.11-0.093-0.177-0.188-0.193-0.287c-0.019-0.1-0.029-0.207-0.029-0.322v-3.322
		c0-0.092,0.013-0.187,0.036-0.284c0.022-0.097,0.08-0.186,0.172-0.269s0.192-0.137,0.298-0.16c0.106-0.022,0.202-0.034,0.29-0.034
		h3.482v1.177h-2.396c-0.046,0-0.091,0.006-0.135,0.018c-0.043,0.011-0.08,0.028-0.106,0.051c-0.037,0.033-0.06,0.072-0.065,0.118
		c-0.008,0.046-0.011,0.085-0.011,0.118v0.366h2.643v1.052h-2.643v0.527c0,0.05,0.007,0.089,0.02,0.116
		c0.015,0.028,0.031,0.05,0.049,0.063c0.037,0.037,0.083,0.057,0.139,0.059s0.107,0.004,0.159,0.004h2.366v1.177H359.747z"/>
	<polygon clip-path="url(#SVGID_7_)" fill="#B7B6B6" points="371.374,80.673 369.811,80.673 369.811,78.749 368.053,78.749 
		368.053,80.673 366.488,80.673 366.488,75.829 368.053,75.829 368.053,77.545 369.811,77.545 369.811,75.829 371.374,75.829 	"/>
	<path clip-path="url(#SVGID_7_)" fill="#B7B6B6" d="M378.516,80.673l0.068-2.845c0-0.046-0.002-0.088-0.007-0.125
		c-0.004-0.037-0.024-0.055-0.062-0.055c-0.022,0-0.046,0.02-0.068,0.059c-0.023,0.039-0.061,0.099-0.112,0.177l-1.377,2.353
		c-0.031,0.055-0.073,0.113-0.125,0.173c-0.05,0.061-0.115,0.113-0.196,0.159c-0.08,0.046-0.181,0.084-0.297,0.114
		c-0.118,0.031-0.261,0.045-0.427,0.045c-0.239,0-0.43-0.033-0.57-0.1c-0.141-0.067-0.249-0.155-0.325-0.264
		s-0.126-0.231-0.148-0.37c-0.023-0.138-0.036-0.28-0.036-0.429v-3.737h1.593l-0.069,2.775v0.076c0,0.032,0.004,0.067,0.011,0.106
		c0.006,0.039,0.031,0.06,0.072,0.06c0.023,0,0.044-0.016,0.062-0.045c0.02-0.03,0.044-0.073,0.077-0.128l1.335-2.332
		c0.074-0.135,0.157-0.239,0.249-0.315s0.187-0.133,0.281-0.169c0.094-0.038,0.186-0.06,0.276-0.07
		c0.091-0.009,0.17-0.014,0.238-0.014c0.277,0,0.493,0.044,0.648,0.132c0.154,0.087,0.268,0.194,0.342,0.318
		c0.074,0.125,0.119,0.256,0.134,0.395c0.018,0.139,0.025,0.256,0.025,0.353v3.703H378.516z"/>
	<path clip-path="url(#SVGID_7_)" fill="#B7B6B6" d="M386.787,80.673v-3.322c0-0.037-0.005-0.077-0.016-0.121
		c-0.008-0.044-0.033-0.084-0.075-0.121c-0.036-0.037-0.074-0.059-0.113-0.066c-0.04-0.007-0.082-0.01-0.129-0.01h-0.982
		c-0.06,0-0.121,0.008-0.18,0.024c-0.062,0.016-0.115,0.056-0.166,0.121c-0.042,0.056-0.068,0.118-0.08,0.187
		c-0.012,0.069-0.017,0.134-0.017,0.194c0,0.12,0.007,0.206,0.021,0.26c0.013,0.052,0.025,0.083,0.034,0.093
		c0.051,0.093,0.115,0.15,0.194,0.173c0.077,0.023,0.152,0.034,0.221,0.034h0.317c0.048,0,0.109,0.004,0.188,0.012
		c0.078,0.007,0.155,0.024,0.231,0.055c0.075,0.03,0.144,0.077,0.2,0.142c0.059,0.065,0.086,0.155,0.086,0.271v0.11
		c0,0.147-0.028,0.271-0.09,0.37c-0.059,0.1-0.128,0.199-0.207,0.302l-0.982,1.294h-1.882l1.35-1.427v-0.02h-0.208
		c-0.06,0-0.127-0.007-0.2-0.021c-0.075-0.014-0.148-0.038-0.222-0.072c-0.074-0.034-0.147-0.082-0.218-0.143
		c-0.072-0.06-0.134-0.136-0.184-0.228c-0.051-0.088-0.09-0.186-0.119-0.291c-0.026-0.106-0.047-0.216-0.062-0.328
		c-0.014-0.114-0.023-0.229-0.027-0.346c-0.005-0.118-0.007-0.234-0.007-0.351c0-0.198,0.011-0.396,0.034-0.591
		c0.022-0.197,0.091-0.382,0.201-0.558c0.129-0.198,0.289-0.326,0.48-0.385c0.191-0.057,0.418-0.086,0.683-0.086h2.78
		c0.094,0,0.189,0.021,0.288,0.063c0.1,0.041,0.182,0.095,0.246,0.159c0.078,0.083,0.127,0.177,0.146,0.279
		c0.019,0.104,0.026,0.2,0.026,0.288v4.056H386.787z"/>
	<path clip-path="url(#SVGID_7_)" fill="#E63312" d="M138.12,64.11l-7.149-9.96l-7.149,9.96h-15.199l10.763-12.949
		c2.409-2.897,2.411-7.101,0.005-10.001L109.074,28.72h15.198l6.699,9.454l6.699-9.454h15.199l-10.525,12.689
		c-2.286,2.756-2.284,6.749,0.005,9.501l10.97,13.199H138.12z"/>
	<path clip-path="url(#SVGID_7_)" fill="#E63312" d="M169.586,32.613c0.301-0.64,0.657-1.23,1.07-1.769s0.957-0.994,1.633-1.366
		c0.675-0.37,1.51-0.657,2.504-0.859c0.995-0.202,2.261-0.303,3.8-0.303c0.938,0,1.848,0.042,2.73,0.126
		c0.882,0.085,1.708,0.27,2.477,0.556c0.769,0.287,1.482,0.717,2.139,1.289c0.657,0.574,1.211,1.349,1.661,2.326l14.58,31.497
		h-13.398l-3.096-7.28H171.5l-3.096,7.28h-13.397L169.586,32.613z M174.54,48.741h8.106l-3.546-8.949
		c-0.076-0.134-0.16-0.295-0.253-0.48c-0.095-0.185-0.179-0.278-0.254-0.278s-0.16,0.093-0.253,0.278
		c-0.094,0.185-0.178,0.346-0.254,0.48L174.54,48.741z"/>
	<path clip-path="url(#SVGID_7_)" fill="#E63312" d="M236.63,64.111l0.563-20.779c0-0.337-0.019-0.64-0.056-0.91
		c-0.038-0.27-0.207-0.405-0.507-0.405c-0.188,0-0.376,0.144-0.563,0.43c-0.188,0.287-0.489,0.716-0.902,1.289l-11.201,17.189
		c-0.264,0.405-0.601,0.827-1.014,1.264c-0.414,0.439-0.947,0.827-1.604,1.163c-0.657,0.338-1.464,0.615-2.421,0.834
		c-0.957,0.22-2.11,0.329-3.462,0.329c-1.951,0-3.5-0.245-4.644-0.732c-1.146-0.488-2.026-1.129-2.646-1.921
		c-0.619-0.792-1.022-1.694-1.21-2.705c-0.188-1.012-0.281-2.057-0.281-3.136V28.719h12.947l-0.563,20.274
		c0,0.438,0.019,0.843,0.056,1.213c0.037,0.372,0.243,0.556,0.619,0.556c0.188,0,0.357-0.108,0.507-0.328
		c0.15-0.219,0.357-0.53,0.619-0.935l10.865-17.038c0.599-0.977,1.275-1.745,2.026-2.301c0.75-0.556,1.511-0.968,2.279-1.238
		c0.77-0.269,1.521-0.438,2.251-0.506c0.733-0.067,1.381-0.101,1.943-0.101c2.252,0,4.006,0.321,5.263,0.961
		c1.258,0.64,2.187,1.415,2.787,2.325c0.6,0.91,0.965,1.871,1.098,2.882c0.131,1.011,0.196,1.871,0.196,2.579v27.048H236.63z
		 M221.262,16.215c0.187,0.404,0.46,0.834,0.815,1.289c0.357,0.455,0.761,0.852,1.211,1.188c0.601,0.404,1.331,0.717,2.196,0.936
		c0.862,0.219,1.688,0.328,2.477,0.328c0.787,0,1.633-0.109,2.532-0.328c0.901-0.219,1.633-0.532,2.196-0.936
		c0.412-0.303,0.797-0.699,1.154-1.188c0.355-0.488,0.628-0.918,0.814-1.289h7.938c-0.226,0.573-0.507,1.163-0.845,1.77
		c-0.338,0.606-0.723,1.213-1.153,1.819c-0.433,0.607-0.901,1.181-1.407,1.719c-0.507,0.54-1.042,0.995-1.604,1.365
		c-1.238,0.843-2.722,1.459-4.447,1.846c-1.728,0.388-3.453,0.581-5.179,0.581c-1.727,0-3.453-0.193-5.179-0.581
		c-1.727-0.387-3.209-1.003-4.447-1.846c-0.563-0.37-1.098-0.825-1.604-1.365c-0.507-0.538-0.977-1.112-1.407-1.719
		c-0.432-0.606-0.816-1.213-1.154-1.819c-0.338-0.607-0.619-1.197-0.845-1.77H221.262z"/>
</g>
<g>
	<defs>
		<polygon id="SVGID_8_" points="254.643,28.72 254.643,37.517 268.717,37.517 268.717,64.11 281.438,64.11 281.438,37.517 
			295.511,37.517 295.511,28.72 		"/>
	</defs>
	<clipPath id="SVGID_9_">
		<use xlink:href="#SVGID_8_"  overflow="visible"/>
	</clipPath>
	
		<linearGradient id="SVGID_10_" gradientUnits="userSpaceOnUse" x1="0" y1="92.7856" x2="1" y2="92.7856" gradientTransform="matrix(0 44.3346 44.3346 0 -3838.5513 23.9419)">
		<stop  offset="0" style="stop-color:#BDBCBC"/>
		<stop  offset="0.7579" style="stop-color:#4D4D4C"/>
		<stop  offset="1" style="stop-color:#4D4D4C"/>
	</linearGradient>
	<rect x="254.643" y="28.72" clip-path="url(#SVGID_9_)" fill="url(#SVGID_10_)" width="40.868" height="35.39"/>
</g>
<g>
	<defs>
		<path id="SVGID_11_" d="M307.05,28.72c-0.713,0-1.502,0.085-2.364,0.253c-0.863,0.169-1.67,0.556-2.421,1.163
			s-1.219,1.264-1.406,1.972c-0.189,0.707-0.281,1.399-0.281,2.073v24.266c0,0.844,0.074,1.628,0.225,2.352
			c0.15,0.726,0.675,1.424,1.576,2.099c0.751,0.572,1.529,0.919,2.337,1.037c0.807,0.117,1.622,0.176,2.448,0.176h28.37v-8.596
			h-19.251c-0.414,0-0.845-0.007-1.295-0.024c-0.451-0.016-0.825-0.159-1.125-0.429c-0.15-0.103-0.282-0.253-0.396-0.456
			c-0.111-0.201-0.168-0.488-0.168-0.859v-3.842h21.504V42.22h-21.504v-2.681c0-0.235,0.028-0.522,0.085-0.859
			c0.056-0.336,0.233-0.623,0.533-0.859c0.226-0.169,0.516-0.295,0.874-0.38c0.357-0.083,0.721-0.126,1.097-0.126h19.478V28.72
			H307.05z"/>
	</defs>
	<clipPath id="SVGID_12_">
		<use xlink:href="#SVGID_11_"  overflow="visible"/>
	</clipPath>
	
		<linearGradient id="SVGID_13_" gradientUnits="userSpaceOnUse" x1="0" y1="92.7856" x2="1" y2="92.7856" gradientTransform="matrix(0 44.3346 44.3346 0 -3795.5513 23.9419)">
		<stop  offset="0" style="stop-color:#BDBCBC"/>
		<stop  offset="0.7579" style="stop-color:#4D4D4C"/>
		<stop  offset="1" style="stop-color:#4D4D4C"/>
	</linearGradient>
	<rect x="300.577" y="28.72" clip-path="url(#SVGID_12_)" fill="url(#SVGID_13_)" width="34.956" height="35.39"/>
</g>
<g>
	<defs>
		<path id="SVGID_14_" d="M343.415,64.11h12.721V28.72h-12.721V64.11z M369.76,28.72l-10.584,13.347
			c-0.414,0.539-0.815,1.163-1.21,1.871c-0.394,0.708-0.591,1.399-0.591,2.072c0,0.777,0.262,1.56,0.788,2.352
			c0.524,0.792,1.032,1.474,1.52,2.048l11.935,13.7h15.312l-15.312-14.964c-0.413-0.405-0.865-0.894-1.353-1.467
			c-0.485-0.573-0.73-1.145-0.73-1.718c0-0.169,0.085-0.456,0.253-0.86c0.169-0.405,0.629-0.994,1.379-1.769l13.679-14.612H369.76z"
			/>
	</defs>
	<clipPath id="SVGID_15_">
		<use xlink:href="#SVGID_14_"  overflow="visible"/>
	</clipPath>
	
		<linearGradient id="SVGID_16_" gradientUnits="userSpaceOnUse" x1="0" y1="92.7856" x2="1" y2="92.7856" gradientTransform="matrix(0 44.3346 44.3346 0 -3748.4575 23.9419)">
		<stop  offset="0" style="stop-color:#BDBCBC"/>
		<stop  offset="0.7579" style="stop-color:#4D4D4C"/>
		<stop  offset="1" style="stop-color:#4D4D4C"/>
	</linearGradient>
	<rect x="343.415" y="28.72" clip-path="url(#SVGID_15_)" fill="url(#SVGID_16_)" width="43.514" height="35.39"/>
</g>
</svg>
