<?xml version="1.0" encoding="utf-8"?>
<!-- Generator: Adobe Illustrator 20.1.0, SVG Export Plug-In . SVG Version: 6.00 Build 0)  -->
<svg version="1.1" id="Слой_1" xmlns="http://www.w3.org/2000/svg" xmlns:xlink="http://www.w3.org/1999/xlink" x="0px" y="0px"
	 viewBox="0 0 12.8 17.5" style="enable-background:new 0 0 12.8 17.5;" xml:space="preserve">
<style type="text/css">
	.st0{fill:#FFFFFF;}
</style>
<g>
	<g>
		<path class="st0" d="M6.4,0C2.9,0,0,2.9,0,6.4c0,0.7,0.1,1.4,0.4,2.1c0.4,1.1,1.1,2.1,2,2.9c0.8,0.7,1.4,1.7,1.6,2.8l0,0
			c0,0.1,0.1,0.2,0.1,0.2l0,0l0,0c0.6,0.2,1.2,0.3,1.8,0.3c0.2,0,0.3,0,0.5,0s0.3,0,0.5,0c0.6,0,1.2-0.1,1.8-0.3l0,0l0,0
			c0.1,0,0.1-0.1,0.1-0.2l0,0c0.2-1.1,0.7-2,1.5-2.7c0.1-0.1,0.2-0.2,0.3-0.2c0.8-0.7,1.5-1.7,1.9-2.8c0.2-0.7,0.3-1.4,0.3-2.1
			C12.8,2.9,9.9,0,6.4,0 M9.1,10c-0.8,0.7-1.5,1.7-1.9,2.8c-0.1,0-0.1,0-0.2,0c-0.2,0-0.4,0-0.6,0s-0.4,0-0.6,0c-0.1,0-0.1,0-0.2,0
			c-0.4-1.1-1.1-2.1-2-2.9l0,0C2.6,9,1.9,7.8,1.9,6.4c0-2.5,2-4.5,4.5-4.5s4.5,2,4.5,4.5c0,1.3-0.6,2.5-1.5,3.4
			C9.3,9.8,9.2,9.9,9.1,10"/>
	</g>
	<g>
		<path class="st0" d="M8.6,5.7C8.2,5.7,7.9,6,7.8,6.4l0,0c0,0,0,0,0,0.1l0,0c0,0.8-0.7,1.3-1.4,1.3C5.6,7.8,5,7.2,5,6.4l0,0
			C5,6,4.6,5.7,4.2,5.7S3.4,6,3.4,6.5c0,1.6,1.3,2.9,3,2.9c1.6,0,2.9-1.3,2.9-2.9l0,0l0,0C9.3,6,9,5.7,8.6,5.7"/>
	</g>
	<g>
		<path class="st0" d="M8.7,15.1L8.7,15.1L8.7,15.1c-0.6,0.2-1.2,0.3-1.8,0.3c-0.2,0-0.3,0-0.5,0s-0.3,0-0.5,0
			c-0.6,0-1.2-0.1-1.8-0.3l0,0l0,0c0,0-0.1,0-0.1,0.1l0,0l0,0c0,0.9,0.6,1.7,1.5,2.1c0.3,0.1,0.6,0.2,0.9,0.2s0.6-0.1,0.9-0.2
			C8.2,16.9,8.8,16.1,8.7,15.1C8.8,15.2,8.8,15.2,8.7,15.1L8.7,15.1C8.8,15.1,8.8,15.1,8.7,15.1"/>
	</g>
</g>
</svg>
